<?xml version="1.0" standalone="no"?>
<!DOCTYPE svg PUBLIC "-//W3C//DTD SVG 20010904//EN"
 "http://www.w3.org/TR/2001/REC-SVG-20010904/DTD/svg10.dtd">
<svg version="1.0" xmlns="http://www.w3.org/2000/svg"
 width="174.000000pt" height="174.000000pt" viewBox="0 0 174.000000 174.000000"
 preserveAspectRatio="xMidYMid meet">
<metadata>
Created by potrace 1.11, written by Peter Selinger 2001-2013
</metadata>
<g transform="translate(0.000000,174.000000) scale(0.100000,-0.100000)"
fill="#000000" stroke="none">
<path d="M1090 1509 c12 -8 10 -9 -9 -7 -13 2 -26 -1 -28 -7 -1 -6 15 -10 37
-10 23 -1 34 2 27 7 -6 4 -7 8 -2 8 13 0 -17 20 -30 20 -5 0 -3 -5 5 -11z"/>
<path d="M920 1495 c7 -9 15 -13 17 -11 7 7 -7 26 -19 26 -6 0 -6 -6 2 -15z"/>
<path d="M967 1498 c-9 -5 -17 -17 -17 -26 1 -15 2 -15 11 1 7 12 17 16 30 12
10 -4 19 -2 19 3 0 15 -24 21 -43 10z"/>
<path d="M1167 1475 c-8 -20 -4 -29 11 -24 5 2 6 13 2 23 -6 19 -7 19 -13 1z"/>
<path d="M840 1470 c0 -5 5 -10 11 -10 5 0 7 5 4 10 -3 6 -8 10 -11 10 -2 0
-4 -4 -4 -10z"/>
<path d="M1050 1460 c0 -5 5 -10 11 -10 5 0 7 5 4 10 -3 6 -8 10 -11 10 -2 0
-4 -4 -4 -10z"/>
<path d="M1030 1450 c0 -6 -4 -8 -10 -5 -5 3 -10 2 -10 -3 0 -10 41 -24 48
-17 3 2 -3 11 -12 20 -9 9 -16 12 -16 5z"/>
<path d="M915 1440 c3 -5 11 -10 16 -10 6 0 7 5 4 10 -3 6 -11 10 -16 10 -6 0
-7 -4 -4 -10z"/>
<path d="M1090 1440 c0 -5 5 -10 11 -10 5 0 7 -4 4 -10 -3 -5 -1 -10 4 -10 6
0 11 9 11 20 0 11 -7 20 -15 20 -8 0 -15 -4 -15 -10z"/>
<path d="M1266 1434 c-9 -23 -7 -31 4 -14 8 13 10 12 10 -3 0 -13 6 -17 23
-15 14 2 21 -2 19 -10 -1 -7 6 -15 15 -19 10 -4 21 -11 25 -17 13 -19 21 3 10
26 -6 13 -11 17 -11 11 -1 -7 -6 -13 -11 -13 -6 0 -10 8 -8 17 2 10 -3 18 -10
18 -7 0 -17 7 -22 15 -5 8 -10 11 -10 6 0 -5 -6 -3 -14 3 -11 9 -15 8 -20 -5z"/>
<path d="M820 1425 c-9 -10 -9 -15 -1 -15 6 0 11 4 11 10 0 5 7 7 15 4 8 -4
15 -1 15 5 0 16 -25 13 -40 -4z"/>
<path d="M1130 1411 c0 -14 5 -18 20 -14 16 4 17 7 5 19 -18 19 -25 18 -25 -5z"/>
<path d="M705 1410 c3 -5 8 -10 11 -10 2 0 4 5 4 10 0 6 -5 10 -11 10 -5 0 -7
-4 -4 -10z"/>
<path d="M729 1394 c-12 -14 -11 -16 5 -13 11 2 21 10 24 17 5 17 -13 15 -29
-4z"/>
<path d="M770 1399 c0 -5 5 -7 10 -4 6 3 10 8 10 11 0 2 -4 4 -10 4 -5 0 -10
-5 -10 -11z"/>
<path d="M1181 1394 c0 -11 3 -14 6 -6 3 7 2 16 -1 19 -3 4 -6 -2 -5 -13z"/>
<path d="M661 1385 c0 -5 4 -17 9 -25 8 -13 11 -13 27 2 20 20 10 37 -11 19
-11 -9 -15 -9 -19 1 -3 7 -6 9 -6 3z"/>
<path d="M1200 1368 c0 -5 4 -7 9 -4 5 4 12 0 14 -6 4 -10 7 -10 14 -1 7 10
13 8 25 -6 8 -10 18 -24 21 -32 3 -8 6 -5 6 9 1 12 -3 22 -9 22 -5 0 -10 7
-10 15 0 10 -10 14 -35 13 -19 -1 -35 -5 -35 -10z"/>
<path d="M624 1345 c-4 -8 -10 -12 -15 -9 -5 3 -9 0 -9 -5 0 -15 23 -14 44 2
17 13 17 14 2 20 -10 4 -19 1 -22 -8z"/>
<path d="M1310 1339 c0 -5 5 -7 10 -4 6 3 10 8 10 11 0 2 -4 4 -10 4 -5 0 -10
-5 -10 -11z"/>
<path d="M1356 1320 c-11 -3 -15 -9 -10 -13 10 -6 42 9 34 16 -3 3 -14 1 -24
-3z"/>
<path d="M1410 1317 c0 -4 8 -17 19 -28 20 -21 18 -54 -5 -76 -9 -10 -13 -9
-18 3 -8 22 -8 26 4 19 6 -3 10 0 10 8 0 7 -19 24 -41 36 -34 19 -43 21 -50
10 -5 -8 -9 -18 -9 -24 0 -5 4 -4 9 4 6 10 10 10 16 1 4 -6 13 -9 21 -6 8 3
14 -1 14 -9 0 -8 -5 -15 -11 -15 -6 0 3 -12 20 -26 36 -30 53 -28 58 6 6 38
23 49 23 15 0 -27 1 -27 13 -10 10 13 16 15 21 6 5 -7 0 -21 -10 -32 -16 -18
-16 -19 13 -30 29 -10 47 -38 44 -66 -3 -21 16 -15 22 7 3 11 1 20 -4 20 -4 0
-6 6 -3 14 7 17 -25 49 -42 42 -15 -6 -19 6 -7 18 10 10 13 36 3 36 -4 0 -11
10 -14 23 -7 21 -7 21 -16 2 -8 -19 -9 -19 -9 4 -1 17 -5 22 -17 17 -12 -4
-14 -1 -9 14 4 12 2 20 -5 20 -6 0 -8 -4 -5 -10 9 -14 -8 -13 -23 2 -7 7 -12
9 -12 5z"/>
<path d="M589 1303 c-14 -4 -49 -52 -49 -69 0 -5 13 5 28 22 16 17 34 33 42
36 18 6 0 16 -21 11z"/>
<path d="M516 1191 c-17 -33 -20 -51 -8 -51 8 0 33 72 27 78 -2 2 -11 -10 -19
-27z"/>
<path d="M1445 1171 c-3 -6 -12 -8 -20 -4 -10 3 -15 -1 -15 -13 0 -16 2 -17
10 -4 7 11 10 11 10 2 0 -7 4 -10 10 -7 6 3 7 -1 4 -10 -4 -10 2 -24 15 -37
12 -11 20 -26 17 -34 -4 -12 -2 -12 15 -4 26 14 20 31 -17 49 -16 8 -23 16
-16 19 14 4 16 38 3 47 -5 3 -12 1 -16 -4z"/>
<path d="M155 1160 c3 -5 8 -10 11 -10 2 0 4 5 4 10 0 6 -5 10 -11 10 -5 0 -7
-4 -4 -10z"/>
<path d="M1073 1155 c0 -8 4 -15 9 -15 4 0 8 7 8 15 0 8 -4 15 -8 15 -5 0 -9
-7 -9 -15z"/>
<path d="M1513 1127 c1 -42 3 -44 16 -18 7 13 6 24 -3 37 -13 17 -14 15 -13
-19z"/>
<path d="M965 1130 c-3 -5 -1 -10 4 -10 6 0 11 5 11 10 0 6 -2 10 -4 10 -3 0
-8 -4 -11 -10z"/>
<path d="M1010 1130 c0 -5 5 -10 10 -10 6 0 10 5 10 10 0 6 -4 10 -10 10 -5 0
-10 -4 -10 -10z"/>
<path d="M1140 1129 c0 -5 5 -7 10 -4 6 3 10 8 10 11 0 2 -4 4 -10 4 -5 0 -10
-5 -10 -11z"/>
<path d="M485 1110 c4 -13 2 -20 -6 -20 -10 0 -10 -3 -1 -12 14 -14 17 -11 26
25 5 21 3 27 -9 27 -12 0 -15 -6 -10 -20z"/>
<path d="M1170 1083 c-13 -15 -12 -16 4 -10 10 4 20 7 22 7 2 0 4 5 4 10 0 15
-13 12 -30 -7z"/>
<path d="M1557 1083 c-24 -3 -37 -9 -34 -16 2 -7 13 -11 23 -9 10 1 29 3 41 4
14 0 20 5 16 14 -3 8 -6 13 -7 12 0 -1 -18 -3 -39 -5z"/>
<path d="M1126 1065 c4 -8 8 -15 10 -15 2 0 4 7 4 15 0 8 -4 15 -10 15 -5 0
-7 -7 -4 -15z"/>
<path d="M1220 1063 c0 -5 5 -15 10 -23 8 -12 10 -11 10 8 0 12 -4 22 -10 22
-5 0 -10 -3 -10 -7z"/>
<path d="M477 1053 c-10 -10 -8 -53 2 -53 8 0 20 32 21 53 0 9 -14 9 -23 0z"/>
<path d="M1490 1041 c-7 -14 -6 -21 3 -24 9 -4 9 -6 0 -6 -7 -1 -13 -6 -13
-12 0 -5 4 -8 9 -4 5 3 12 1 16 -5 3 -5 1 -10 -4 -10 -6 0 -11 -7 -11 -15 0
-8 7 -15 15 -15 8 0 15 -4 15 -9 0 -5 -8 -7 -18 -4 -13 3 -18 -2 -18 -16 0
-14 4 -17 12 -10 14 11 29 -5 20 -20 -4 -5 -2 -21 4 -35 7 -19 6 -26 -3 -26
-8 0 -7 -4 3 -10 12 -8 12 -10 1 -10 -9 0 -12 -10 -9 -35 2 -19 0 -35 -4 -35
-5 0 -4 -9 1 -19 9 -15 7 -20 -11 -24 -16 -5 -19 -12 -16 -31 3 -14 1 -27 -4
-28 -5 -2 -10 -10 -12 -18 -2 -8 -10 -32 -20 -52 -20 -46 -20 -49 -1 -42 26
11 37 -7 15 -26 -11 -9 -20 -22 -20 -29 0 -6 -4 -11 -10 -11 -5 0 -7 -7 -3
-15 3 -9 2 -15 -3 -14 -15 4 -44 -13 -39 -21 3 -5 -8 -18 -25 -30 -37 -26 -38
-20 -5 17 57 64 85 97 85 103 0 3 -9 6 -19 7 -14 1 -18 -3 -14 -13 4 -10 0
-12 -13 -7 -12 4 -15 3 -10 -5 4 -7 2 -12 -3 -12 -6 0 -11 -6 -11 -13 0 -7
-11 -21 -25 -31 -13 -10 -22 -22 -19 -27 3 -5 -1 -9 -8 -9 -7 0 -25 -11 -40
-25 -15 -14 -31 -25 -37 -25 -5 0 -11 -4 -13 -9 -4 -12 -91 -66 -101 -63 -5 1
-35 -7 -68 -19 -46 -17 -84 -22 -167 -23 -59 -1 -125 3 -147 7 -47 10 -38 -8
10 -19 44 -10 275 -12 304 -2 14 4 45 13 69 19 23 5 40 13 38 18 -3 4 5 7 17
7 15 -1 22 5 22 18 0 10 10 25 23 34 12 8 22 10 22 4 0 -5 -7 -12 -15 -16 -21
-8 -19 -27 3 -22 36 7 53 19 47 33 -4 12 1 14 24 11 21 -3 33 1 43 15 22 32
39 47 53 47 9 0 12 6 8 17 -4 11 -3 14 5 9 7 -4 12 -1 12 8 0 9 5 16 11 16 5
0 7 4 4 10 -3 6 1 10 9 10 8 0 18 9 21 20 3 11 14 20 23 20 14 0 14 2 3 9 -11
7 -9 10 8 16 11 3 21 14 21 22 0 9 6 24 13 32 7 9 21 35 30 59 14 37 14 44 1
49 -8 3 -21 0 -29 -7 -23 -19 -37 -1 -16 21 13 14 18 32 16 57 -1 20 2 47 8
59 7 16 6 27 -3 38 -11 14 -11 18 -1 24 10 7 10 13 2 30 -8 14 -8 21 -1 21 5
0 10 5 10 11 0 5 -5 7 -12 3 -8 -5 -9 3 -5 30 3 22 2 34 -4 31 -5 -4 -9 -1 -9
5 0 6 -4 8 -10 5 -6 -4 -7 6 -4 25 7 34 -9 41 -26 11z m60 -400 c3 -1 -1 -5
-9 -10 -8 -5 -14 -23 -15 -40 -1 -32 -10 -40 -20 -18 -3 6 -5 3 -5 -8 2 -46 0
-49 -22 -29 -19 17 -19 19 -3 31 10 7 14 16 11 20 -4 3 0 15 10 25 9 10 13 18
9 18 -4 0 -5 4 -2 9 4 5 14 8 24 6 9 -2 19 -4 22 -4z m-245 -301 c-3 -5 -14
-10 -23 -9 -14 0 -13 2 3 9 27 11 27 11 20 0z m35 0 c0 -5 -5 -10 -11 -10 -5
0 -7 5 -4 10 3 6 8 10 11 10 2 0 4 -4 4 -10z m-225 -90 c3 -5 1 -10 -4 -10 -6
0 -11 5 -11 10 0 6 2 10 4 10 3 0 8 -4 11 -10z"/>
<path d="M1562 1043 c-6 -2 -10 -9 -6 -14 3 -5 0 -9 -6 -9 -7 0 -5 -7 4 -16 9
-8 16 -22 16 -30 0 -8 4 -14 9 -14 9 0 7 -35 -4 -62 -4 -11 -3 -18 5 -18 6 0
8 5 5 10 -3 6 4 10 17 10 16 0 24 6 25 19 1 13 -3 18 -13 14 -12 -4 -12 -1 1
23 17 33 12 42 -12 23 -16 -13 -17 -12 -5 2 9 12 10 24 2 43 -10 26 -14 29
-38 19z m25 -45 c-3 -8 -6 -5 -6 6 -1 11 2 17 5 13 3 -3 4 -12 1 -19z"/>
<path d="M1130 1035 c0 -20 18 -37 30 -30 7 4 16 2 21 -6 7 -11 9 -11 9 3 0
22 -20 34 -30 18 -6 -9 -10 -8 -19 6 -6 11 -10 15 -11 9z"/>
<path d="M1263 1003 c-16 -6 -17 -43 -2 -43 5 0 8 -4 5 -8 -2 -4 4 -13 15 -20
25 -16 24 -7 -1 20 -15 16 -17 25 -8 35 13 15 9 22 -9 16z"/>
<path d="M461 940 c0 -27 4 -50 9 -50 5 0 7 8 3 18 -8 22 1 14 16 -15 10 -19
9 -22 -3 -17 -24 9 -12 -60 18 -106 14 -22 26 -44 26 -50 0 -5 4 -10 8 -10 8
0 35 -46 36 -63 1 -4 12 -13 26 -20 40 -21 84 -51 92 -62 4 -5 8 -6 8 -1 0 5
6 4 13 -1 10 -9 35 -17 87 -30 60 -14 199 6 276 39 56 25 124 70 118 79 -3 5
2 9 10 9 9 0 16 7 16 15 0 8 5 15 10 15 6 0 10 9 10 20 0 11 7 23 16 27 8 3
13 12 10 19 -3 7 1 20 9 28 22 22 19 46 -6 46 -17 0 -20 -5 -17 -24 5 -25 -17
-64 -29 -52 -4 4 -1 11 7 16 14 9 7 14 -12 11 -12 -2 -9 6 8 23 13 13 13 16 1
16 -12 0 -40 -47 -42 -70 0 -3 -6 -14 -12 -26 -9 -16 -9 -24 0 -34 10 -10 7
-10 -12 0 -21 11 -23 10 -18 -3 8 -20 -61 -83 -120 -109 -39 -17 -60 -20 -121
-15 -41 3 -78 9 -81 14 -3 4 -13 9 -21 10 -28 3 -85 28 -93 41 -4 6 -15 12
-22 12 -8 0 -15 5 -15 10 0 6 -5 10 -10 10 -14 0 -59 51 -60 68 0 6 -4 12 -9
12 -5 0 -21 24 -36 54 -15 30 -29 57 -33 61 -7 6 -8 11 -10 52 -1 12 -8 28
-14 35 -7 7 -13 19 -13 27 0 8 -5 16 -11 18 -7 2 -12 -14 -13 -47z m86 -176
c-3 -3 -12 -4 -19 -1 -8 3 -5 6 6 6 11 1 17 -2 13 -5z m37 -49 c3 -8 3 -15 0
-15 -3 0 -12 7 -20 15 -13 13 -13 15 -1 15 8 0 17 -7 21 -15z m46 -65 c0 -5
-2 -10 -4 -10 -3 0 -8 5 -11 10 -3 6 -1 10 4 10 6 0 11 -4 11 -10z"/>
<path d="M1174 968 c-5 -8 -2 -9 9 -5 20 8 41 -26 32 -53 -7 -22 10 -36 19
-15 3 9 12 12 21 9 9 -4 2 8 -14 27 -17 18 -31 37 -31 41 0 12 -28 9 -36 -4z"/>
<path d="M1195 920 c-3 -5 -1 -10 4 -10 6 0 11 5 11 10 0 6 -2 10 -4 10 -3 0
-8 -4 -11 -10z"/>
<path d="M1283 898 c1 -8 -7 -12 -23 -10 -20 2 -22 1 -10 -7 12 -9 11 -11 -7
-11 -13 0 -23 -5 -23 -11 0 -6 -7 -9 -15 -6 -8 4 -17 2 -20 -2 -6 -10 31 -22
40 -12 4 3 17 6 28 6 13 0 26 9 32 23 5 12 13 22 18 22 4 0 5 5 2 10 -9 14
-25 12 -22 -2z"/>
<path d="M1600 878 c0 -4 -6 -8 -14 -8 -16 0 -15 -25 1 -41 8 -8 16 -8 30 0
10 6 12 11 6 11 -15 0 -18 30 -3 30 6 0 10 4 10 8 0 5 -7 9 -15 9 -8 0 -15 -4
-15 -9z"/>
<path d="M1574 808 c-4 -5 -1 -14 6 -18 8 -5 7 -9 -6 -14 -9 -3 -14 -9 -11
-13 4 -3 2 -12 -4 -20 -9 -9 -8 -13 0 -13 6 0 14 6 17 14 6 16 44 29 44 15 0
-5 -6 -9 -13 -9 -16 0 -47 -31 -47 -47 0 -6 9 -13 20 -16 19 -5 24 3 21 31 -1
7 5 15 14 18 19 8 20 44 0 44 -8 0 -12 6 -9 14 6 16 -23 30 -32 14z"/>
<path d="M220 615 c0 -13 20 -35 32 -35 4 0 8 5 8 11 0 5 -4 8 -9 4 -6 -3 -14
3 -20 12 -6 10 -11 13 -11 8z"/>
<path d="M292 500 c24 -33 30 -37 22 -15 -4 8 -1 15 5 15 6 0 11 5 11 11 0 8
-4 8 -14 0 -10 -9 -15 -8 -20 4 -3 8 -10 15 -16 15 -6 0 -1 -13 12 -30z"/>
<path d="M358 438 c-4 -8 2 -20 13 -26 22 -14 25 -4 6 22 -11 16 -15 16 -19 4z"/>
<path d="M436 362 c-3 -6 -1 -14 5 -17 15 -10 25 3 12 16 -7 7 -13 7 -17 1z"/>
<path d="M470 350 c0 -5 9 -14 19 -20 31 -16 37 -12 13 10 -23 22 -32 25 -32
10z"/>
<path d="M515 300 c3 -5 10 -10 16 -10 5 0 9 5 9 10 0 6 -7 10 -16 10 -8 0
-12 -4 -9 -10z"/>
<path d="M550 305 c0 -22 83 -71 101 -60 5 3 19 1 31 -5 21 -10 21 -10 -2 9
-14 11 -26 18 -29 16 -2 -2 -25 7 -52 21 -27 13 -49 22 -49 19z"/>
</g>
</svg>
